<mxfile host="app.diagrams.net" agent="Mozilla/5.0 (Windows NT 10.0; Win64; x64) AppleWebKit/537.36 (KHTML, like Gecko) Chrome/137.0.0.0 Safari/537.36" version="27.1.6">
  <diagram name="Página-1" id="vnwjOS9bzMbu60nxhRPJ">
    <mxGraphModel dx="1549" dy="925" grid="0" gridSize="10" guides="1" tooltips="1" connect="1" arrows="1" fold="1" page="0" pageScale="1" pageWidth="827" pageHeight="1169" math="0" shadow="0">
      <root>
        <mxCell id="0" />
        <mxCell id="1" parent="0" />
        <mxCell id="SNUM9bTJhINtGgondqrU-1" value="Instituição" style="rounded=0;whiteSpace=wrap;html=1;" parent="1" vertex="1">
          <mxGeometry x="212" y="89" width="131" height="43" as="geometry" />
        </mxCell>
        <mxCell id="SNUM9bTJhINtGgondqrU-79" style="edgeStyle=none;shape=connector;curved=1;rounded=0;orthogonalLoop=1;jettySize=auto;html=1;exitX=1;exitY=0.5;exitDx=0;exitDy=0;entryX=0;entryY=0.5;entryDx=0;entryDy=0;strokeColor=default;align=center;verticalAlign=middle;fontFamily=Helvetica;fontSize=12;fontColor=default;labelBackgroundColor=default;startFill=0;startSize=8;endArrow=none;endSize=8;" parent="1" source="SNUM9bTJhINtGgondqrU-2" target="SNUM9bTJhINtGgondqrU-78" edge="1">
          <mxGeometry relative="1" as="geometry" />
        </mxCell>
        <mxCell id="SNUM9bTJhINtGgondqrU-2" value="Doador" style="rounded=0;whiteSpace=wrap;html=1;" parent="1" vertex="1">
          <mxGeometry x="-690" y="89" width="131" height="43" as="geometry" />
        </mxCell>
        <mxCell id="SNUM9bTJhINtGgondqrU-3" value="Receptor" style="rounded=0;whiteSpace=wrap;html=1;" parent="1" vertex="1">
          <mxGeometry x="229" y="698" width="131" height="43" as="geometry" />
        </mxCell>
        <mxCell id="SNUM9bTJhINtGgondqrU-4" value="Voluntário" style="rounded=0;whiteSpace=wrap;html=1;" parent="1" vertex="1">
          <mxGeometry x="213.5" y="336.5" width="131" height="43" as="geometry" />
        </mxCell>
        <mxCell id="SNUM9bTJhINtGgondqrU-95" style="edgeStyle=none;shape=connector;curved=1;rounded=0;orthogonalLoop=1;jettySize=auto;html=1;exitX=0.5;exitY=1;exitDx=0;exitDy=0;entryX=0.5;entryY=0;entryDx=0;entryDy=0;strokeColor=default;align=center;verticalAlign=middle;fontFamily=Helvetica;fontSize=12;fontColor=default;labelBackgroundColor=default;startFill=0;startSize=8;endArrow=none;endSize=8;" parent="1" source="SNUM9bTJhINtGgondqrU-5" target="SNUM9bTJhINtGgondqrU-94" edge="1">
          <mxGeometry relative="1" as="geometry" />
        </mxCell>
        <mxCell id="SNUM9bTJhINtGgondqrU-5" value="Doação" style="rounded=0;whiteSpace=wrap;html=1;" parent="1" vertex="1">
          <mxGeometry x="-260" y="89" width="131" height="43" as="geometry" />
        </mxCell>
        <mxCell id="SNUM9bTJhINtGgondqrU-105" style="edgeStyle=none;shape=connector;curved=1;rounded=0;orthogonalLoop=1;jettySize=auto;html=1;exitX=0.5;exitY=0;exitDx=0;exitDy=0;entryX=0.5;entryY=1;entryDx=0;entryDy=0;strokeColor=default;align=center;verticalAlign=middle;fontFamily=Helvetica;fontSize=12;fontColor=default;labelBackgroundColor=default;startFill=0;startSize=8;endArrow=none;endSize=8;" parent="1" source="SNUM9bTJhINtGgondqrU-8" target="SNUM9bTJhINtGgondqrU-103" edge="1">
          <mxGeometry relative="1" as="geometry" />
        </mxCell>
        <mxCell id="SNUM9bTJhINtGgondqrU-8" value="Transação de Doação" style="rounded=0;whiteSpace=wrap;html=1;" parent="1" vertex="1">
          <mxGeometry x="-261" y="693.5" width="131" height="43" as="geometry" />
        </mxCell>
        <mxCell id="SNUM9bTJhINtGgondqrU-104" style="edgeStyle=none;shape=connector;curved=1;rounded=0;orthogonalLoop=1;jettySize=auto;html=1;exitX=0.5;exitY=1;exitDx=0;exitDy=0;entryX=0.5;entryY=0;entryDx=0;entryDy=0;strokeColor=default;align=center;verticalAlign=middle;fontFamily=Helvetica;fontSize=12;fontColor=default;labelBackgroundColor=default;startFill=0;startSize=8;endArrow=none;endSize=8;" parent="1" source="SNUM9bTJhINtGgondqrU-9" target="SNUM9bTJhINtGgondqrU-103" edge="1">
          <mxGeometry relative="1" as="geometry" />
        </mxCell>
        <mxCell id="SNUM9bTJhINtGgondqrU-9" value="Item Doado" style="rounded=0;whiteSpace=wrap;html=1;" parent="1" vertex="1">
          <mxGeometry x="-260" y="384.5" width="131" height="43" as="geometry" />
        </mxCell>
        <mxCell id="SNUM9bTJhINtGgondqrU-18" style="edgeStyle=none;shape=connector;curved=1;rounded=0;orthogonalLoop=1;jettySize=auto;html=1;exitX=0.5;exitY=1;exitDx=0;exitDy=0;entryX=0.25;entryY=0;entryDx=0;entryDy=0;strokeColor=default;align=center;verticalAlign=middle;fontFamily=Helvetica;fontSize=12;fontColor=default;labelBackgroundColor=default;startFill=0;startSize=8;endArrow=none;endSize=8;" parent="1" source="SNUM9bTJhINtGgondqrU-11" target="SNUM9bTJhINtGgondqrU-1" edge="1">
          <mxGeometry relative="1" as="geometry" />
        </mxCell>
        <mxCell id="SNUM9bTJhINtGgondqrU-11" value="Nome" style="ellipse;whiteSpace=wrap;html=1;fontStyle=0" parent="1" vertex="1">
          <mxGeometry x="191" y="-26" width="84" height="50" as="geometry" />
        </mxCell>
        <mxCell id="SNUM9bTJhINtGgondqrU-19" style="edgeStyle=none;shape=connector;curved=1;rounded=0;orthogonalLoop=1;jettySize=auto;html=1;exitX=1;exitY=1;exitDx=0;exitDy=0;entryX=0;entryY=0;entryDx=0;entryDy=0;strokeColor=default;align=center;verticalAlign=middle;fontFamily=Helvetica;fontSize=12;fontColor=default;labelBackgroundColor=default;startFill=0;startSize=8;endArrow=none;endSize=8;" parent="1" source="SNUM9bTJhINtGgondqrU-13" target="SNUM9bTJhINtGgondqrU-1" edge="1">
          <mxGeometry relative="1" as="geometry" />
        </mxCell>
        <mxCell id="SNUM9bTJhINtGgondqrU-13" value="CNPJ" style="ellipse;whiteSpace=wrap;html=1;fontStyle=4" parent="1" vertex="1">
          <mxGeometry x="116" y="17" width="71" height="47" as="geometry" />
        </mxCell>
        <mxCell id="SNUM9bTJhINtGgondqrU-20" style="edgeStyle=none;shape=connector;curved=1;rounded=0;orthogonalLoop=1;jettySize=auto;html=1;exitX=0.5;exitY=1;exitDx=0;exitDy=0;entryX=0.75;entryY=0;entryDx=0;entryDy=0;strokeColor=default;align=center;verticalAlign=middle;fontFamily=Helvetica;fontSize=12;fontColor=default;labelBackgroundColor=default;startFill=0;startSize=8;endArrow=none;endSize=8;" parent="1" source="SNUM9bTJhINtGgondqrU-14" target="SNUM9bTJhINtGgondqrU-1" edge="1">
          <mxGeometry relative="1" as="geometry" />
        </mxCell>
        <mxCell id="SNUM9bTJhINtGgondqrU-14" value="Endereço" style="ellipse;whiteSpace=wrap;html=1;fontStyle=0" parent="1" vertex="1">
          <mxGeometry x="302" y="-23" width="71" height="47" as="geometry" />
        </mxCell>
        <mxCell id="SNUM9bTJhINtGgondqrU-21" style="edgeStyle=none;shape=connector;curved=1;rounded=0;orthogonalLoop=1;jettySize=auto;html=1;exitX=0;exitY=1;exitDx=0;exitDy=0;entryX=1;entryY=0;entryDx=0;entryDy=0;strokeColor=default;align=center;verticalAlign=middle;fontFamily=Helvetica;fontSize=12;fontColor=default;labelBackgroundColor=default;startFill=0;startSize=8;endArrow=none;endSize=8;" parent="1" source="SNUM9bTJhINtGgondqrU-15" target="SNUM9bTJhINtGgondqrU-1" edge="1">
          <mxGeometry relative="1" as="geometry" />
        </mxCell>
        <mxCell id="SNUM9bTJhINtGgondqrU-15" value="Telefone" style="ellipse;whiteSpace=wrap;html=1;fontStyle=0" parent="1" vertex="1">
          <mxGeometry x="363" y="26" width="71" height="47" as="geometry" />
        </mxCell>
        <mxCell id="SNUM9bTJhINtGgondqrU-27" style="edgeStyle=none;shape=connector;curved=1;rounded=0;orthogonalLoop=1;jettySize=auto;html=1;exitX=0.5;exitY=0;exitDx=0;exitDy=0;entryX=0.25;entryY=1;entryDx=0;entryDy=0;strokeColor=default;align=center;verticalAlign=middle;fontFamily=Helvetica;fontSize=12;fontColor=default;labelBackgroundColor=default;startFill=0;startSize=8;endArrow=none;endSize=8;" parent="1" source="SNUM9bTJhINtGgondqrU-22" target="SNUM9bTJhINtGgondqrU-2" edge="1">
          <mxGeometry relative="1" as="geometry" />
        </mxCell>
        <mxCell id="SNUM9bTJhINtGgondqrU-22" value="ID" style="ellipse;whiteSpace=wrap;html=1;fontStyle=4" parent="1" vertex="1">
          <mxGeometry x="-693" y="167" width="67" height="44" as="geometry" />
        </mxCell>
        <mxCell id="SNUM9bTJhINtGgondqrU-28" style="edgeStyle=none;shape=connector;curved=1;rounded=0;orthogonalLoop=1;jettySize=auto;html=1;exitX=1;exitY=1;exitDx=0;exitDy=0;entryX=0;entryY=1;entryDx=0;entryDy=0;strokeColor=default;align=center;verticalAlign=middle;fontFamily=Helvetica;fontSize=12;fontColor=default;labelBackgroundColor=default;startFill=0;startSize=8;endArrow=none;endSize=8;" parent="1" source="SNUM9bTJhINtGgondqrU-23" target="SNUM9bTJhINtGgondqrU-2" edge="1">
          <mxGeometry relative="1" as="geometry" />
        </mxCell>
        <mxCell id="SNUM9bTJhINtGgondqrU-23" value="Nome" style="ellipse;whiteSpace=wrap;html=1;fontStyle=0" parent="1" vertex="1">
          <mxGeometry x="-791" y="142" width="84" height="50" as="geometry" />
        </mxCell>
        <mxCell id="SNUM9bTJhINtGgondqrU-29" style="edgeStyle=none;shape=connector;curved=1;rounded=0;orthogonalLoop=1;jettySize=auto;html=1;exitX=1;exitY=0.5;exitDx=0;exitDy=0;entryX=0;entryY=0.5;entryDx=0;entryDy=0;strokeColor=default;align=center;verticalAlign=middle;fontFamily=Helvetica;fontSize=12;fontColor=default;labelBackgroundColor=default;startFill=0;startSize=8;endArrow=none;endSize=8;" parent="1" source="SNUM9bTJhINtGgondqrU-24" target="SNUM9bTJhINtGgondqrU-2" edge="1">
          <mxGeometry relative="1" as="geometry" />
        </mxCell>
        <mxCell id="SNUM9bTJhINtGgondqrU-24" value="CPF_CNPJ" style="ellipse;whiteSpace=wrap;html=1;fontStyle=0" parent="1" vertex="1">
          <mxGeometry x="-799" y="61" width="71" height="47" as="geometry" />
        </mxCell>
        <mxCell id="SNUM9bTJhINtGgondqrU-31" style="edgeStyle=none;shape=connector;curved=1;rounded=0;orthogonalLoop=1;jettySize=auto;html=1;exitX=0.5;exitY=1;exitDx=0;exitDy=0;entryX=0.75;entryY=0;entryDx=0;entryDy=0;strokeColor=default;align=center;verticalAlign=middle;fontFamily=Helvetica;fontSize=12;fontColor=default;labelBackgroundColor=default;startFill=0;startSize=8;endArrow=none;endSize=8;" parent="1" source="SNUM9bTJhINtGgondqrU-25" target="SNUM9bTJhINtGgondqrU-2" edge="1">
          <mxGeometry relative="1" as="geometry" />
        </mxCell>
        <mxCell id="SNUM9bTJhINtGgondqrU-25" value="Telefone" style="ellipse;whiteSpace=wrap;html=1;fontStyle=0" parent="1" vertex="1">
          <mxGeometry x="-647" y="-8.5" width="71" height="47" as="geometry" />
        </mxCell>
        <mxCell id="SNUM9bTJhINtGgondqrU-30" style="edgeStyle=none;shape=connector;curved=1;rounded=0;orthogonalLoop=1;jettySize=auto;html=1;exitX=0.5;exitY=1;exitDx=0;exitDy=0;entryX=0.5;entryY=0;entryDx=0;entryDy=0;strokeColor=default;align=center;verticalAlign=middle;fontFamily=Helvetica;fontSize=12;fontColor=default;labelBackgroundColor=default;startFill=0;startSize=8;endArrow=none;endSize=8;" parent="1" source="SNUM9bTJhINtGgondqrU-26" target="SNUM9bTJhINtGgondqrU-2" edge="1">
          <mxGeometry relative="1" as="geometry" />
        </mxCell>
        <mxCell id="SNUM9bTJhINtGgondqrU-26" value="E-mail" style="ellipse;whiteSpace=wrap;html=1;fontStyle=0" parent="1" vertex="1">
          <mxGeometry x="-738" y="1" width="71" height="47" as="geometry" />
        </mxCell>
        <mxCell id="SNUM9bTJhINtGgondqrU-37" style="edgeStyle=none;shape=connector;curved=1;rounded=0;orthogonalLoop=1;jettySize=auto;html=1;exitX=1;exitY=1;exitDx=0;exitDy=0;entryX=0.25;entryY=0;entryDx=0;entryDy=0;strokeColor=default;align=center;verticalAlign=middle;fontFamily=Helvetica;fontSize=12;fontColor=default;labelBackgroundColor=default;startFill=0;startSize=8;endArrow=none;endSize=8;" parent="1" source="SNUM9bTJhINtGgondqrU-32" target="SNUM9bTJhINtGgondqrU-3" edge="1">
          <mxGeometry relative="1" as="geometry" />
        </mxCell>
        <mxCell id="SNUM9bTJhINtGgondqrU-32" value="ID" style="ellipse;whiteSpace=wrap;html=1;fontStyle=4" parent="1" vertex="1">
          <mxGeometry x="171" y="635" width="71" height="47" as="geometry" />
        </mxCell>
        <mxCell id="SNUM9bTJhINtGgondqrU-38" style="edgeStyle=none;shape=connector;curved=1;rounded=0;orthogonalLoop=1;jettySize=auto;html=1;exitX=0.5;exitY=1;exitDx=0;exitDy=0;entryX=0.5;entryY=0;entryDx=0;entryDy=0;strokeColor=default;align=center;verticalAlign=middle;fontFamily=Helvetica;fontSize=12;fontColor=default;labelBackgroundColor=default;startFill=0;startSize=8;endArrow=none;endSize=8;" parent="1" source="SNUM9bTJhINtGgondqrU-33" target="SNUM9bTJhINtGgondqrU-3" edge="1">
          <mxGeometry relative="1" as="geometry" />
        </mxCell>
        <mxCell id="SNUM9bTJhINtGgondqrU-33" value="Nome" style="ellipse;whiteSpace=wrap;html=1;fontStyle=0" parent="1" vertex="1">
          <mxGeometry x="252.5" y="610" width="84" height="50" as="geometry" />
        </mxCell>
        <mxCell id="SNUM9bTJhINtGgondqrU-39" value="" style="edgeStyle=none;shape=connector;curved=1;rounded=0;orthogonalLoop=1;jettySize=auto;html=1;strokeColor=default;align=center;verticalAlign=middle;fontFamily=Helvetica;fontSize=12;fontColor=default;labelBackgroundColor=default;startFill=0;startSize=8;endArrow=none;endSize=8;" parent="1" source="SNUM9bTJhINtGgondqrU-34" target="SNUM9bTJhINtGgondqrU-3" edge="1">
          <mxGeometry relative="1" as="geometry" />
        </mxCell>
        <mxCell id="SNUM9bTJhINtGgondqrU-34" value="CPF" style="ellipse;whiteSpace=wrap;html=1;fontStyle=0" parent="1" vertex="1">
          <mxGeometry x="353" y="617.5" width="71" height="47" as="geometry" />
        </mxCell>
        <mxCell id="SNUM9bTJhINtGgondqrU-40" style="edgeStyle=none;shape=connector;curved=1;rounded=0;orthogonalLoop=1;jettySize=auto;html=1;exitX=0;exitY=0.5;exitDx=0;exitDy=0;entryX=1;entryY=0.25;entryDx=0;entryDy=0;strokeColor=default;align=center;verticalAlign=middle;fontFamily=Helvetica;fontSize=12;fontColor=default;labelBackgroundColor=default;startFill=0;startSize=8;endArrow=none;endSize=8;" parent="1" source="SNUM9bTJhINtGgondqrU-35" target="SNUM9bTJhINtGgondqrU-3" edge="1">
          <mxGeometry relative="1" as="geometry" />
        </mxCell>
        <mxCell id="SNUM9bTJhINtGgondqrU-35" value="Endereço" style="ellipse;whiteSpace=wrap;html=1;fontStyle=0" parent="1" vertex="1">
          <mxGeometry x="410" y="677" width="71" height="47" as="geometry" />
        </mxCell>
        <mxCell id="SNUM9bTJhINtGgondqrU-41" style="edgeStyle=none;shape=connector;curved=1;rounded=0;orthogonalLoop=1;jettySize=auto;html=1;exitX=0;exitY=0;exitDx=0;exitDy=0;entryX=1;entryY=0.75;entryDx=0;entryDy=0;strokeColor=default;align=center;verticalAlign=middle;fontFamily=Helvetica;fontSize=12;fontColor=default;labelBackgroundColor=default;startFill=0;startSize=8;endArrow=none;endSize=8;" parent="1" source="SNUM9bTJhINtGgondqrU-36" target="SNUM9bTJhINtGgondqrU-3" edge="1">
          <mxGeometry relative="1" as="geometry" />
        </mxCell>
        <mxCell id="SNUM9bTJhINtGgondqrU-36" value="Telefone" style="ellipse;whiteSpace=wrap;html=1;fontStyle=0" parent="1" vertex="1">
          <mxGeometry x="382" y="741" width="71" height="47" as="geometry" />
        </mxCell>
        <mxCell id="SNUM9bTJhINtGgondqrU-45" style="edgeStyle=none;shape=connector;curved=1;rounded=0;orthogonalLoop=1;jettySize=auto;html=1;exitX=0.5;exitY=1;exitDx=0;exitDy=0;entryX=0.25;entryY=0;entryDx=0;entryDy=0;strokeColor=default;align=center;verticalAlign=middle;fontFamily=Helvetica;fontSize=12;fontColor=default;labelBackgroundColor=default;startFill=0;startSize=8;endArrow=none;endSize=8;" parent="1" source="SNUM9bTJhINtGgondqrU-42" target="SNUM9bTJhINtGgondqrU-5" edge="1">
          <mxGeometry relative="1" as="geometry" />
        </mxCell>
        <mxCell id="SNUM9bTJhINtGgondqrU-42" value="ID" style="ellipse;whiteSpace=wrap;html=1;fontStyle=4" parent="1" vertex="1">
          <mxGeometry x="-291" y="1" width="71" height="47" as="geometry" />
        </mxCell>
        <mxCell id="SNUM9bTJhINtGgondqrU-46" style="edgeStyle=none;shape=connector;curved=1;rounded=0;orthogonalLoop=1;jettySize=auto;html=1;exitX=0.5;exitY=1;exitDx=0;exitDy=0;entryX=0.5;entryY=0;entryDx=0;entryDy=0;strokeColor=default;align=center;verticalAlign=middle;fontFamily=Helvetica;fontSize=12;fontColor=default;labelBackgroundColor=default;startFill=0;startSize=8;endArrow=none;endSize=8;" parent="1" source="SNUM9bTJhINtGgondqrU-44" target="SNUM9bTJhINtGgondqrU-5" edge="1">
          <mxGeometry relative="1" as="geometry" />
        </mxCell>
        <mxCell id="SNUM9bTJhINtGgondqrU-44" value="Data da Doação" style="ellipse;whiteSpace=wrap;html=1;fontStyle=0" parent="1" vertex="1">
          <mxGeometry x="-212" y="-8.5" width="100.5" height="54" as="geometry" />
        </mxCell>
        <mxCell id="SNUM9bTJhINtGgondqrU-50" style="edgeStyle=none;shape=connector;curved=1;rounded=0;orthogonalLoop=1;jettySize=auto;html=1;exitX=1;exitY=0;exitDx=0;exitDy=0;entryX=0;entryY=0.75;entryDx=0;entryDy=0;strokeColor=default;align=center;verticalAlign=middle;fontFamily=Helvetica;fontSize=12;fontColor=default;labelBackgroundColor=default;startFill=0;startSize=8;endArrow=none;endSize=8;" parent="1" source="SNUM9bTJhINtGgondqrU-47" target="SNUM9bTJhINtGgondqrU-8" edge="1">
          <mxGeometry relative="1" as="geometry" />
        </mxCell>
        <mxCell id="SNUM9bTJhINtGgondqrU-47" value="Data da Entrega" style="ellipse;whiteSpace=wrap;html=1;fontStyle=0" parent="1" vertex="1">
          <mxGeometry x="-392" y="736.5" width="110" height="55" as="geometry" />
        </mxCell>
        <mxCell id="SNUM9bTJhINtGgondqrU-49" style="edgeStyle=none;shape=connector;curved=1;rounded=0;orthogonalLoop=1;jettySize=auto;html=1;exitX=1;exitY=0.5;exitDx=0;exitDy=0;entryX=0;entryY=0.25;entryDx=0;entryDy=0;strokeColor=default;align=center;verticalAlign=middle;fontFamily=Helvetica;fontSize=12;fontColor=default;labelBackgroundColor=default;startFill=0;startSize=8;endArrow=none;endSize=8;" parent="1" source="SNUM9bTJhINtGgondqrU-48" target="SNUM9bTJhINtGgondqrU-8" edge="1">
          <mxGeometry relative="1" as="geometry" />
        </mxCell>
        <mxCell id="SNUM9bTJhINtGgondqrU-48" value="ID" style="ellipse;whiteSpace=wrap;html=1;fontStyle=4" parent="1" vertex="1">
          <mxGeometry x="-362" y="671" width="67" height="44" as="geometry" />
        </mxCell>
        <mxCell id="SNUM9bTJhINtGgondqrU-56" value="" style="edgeStyle=none;shape=connector;curved=1;rounded=0;orthogonalLoop=1;jettySize=auto;html=1;strokeColor=default;align=center;verticalAlign=middle;fontFamily=Helvetica;fontSize=12;fontColor=default;labelBackgroundColor=default;startFill=0;startSize=8;endArrow=none;endSize=8;entryX=0.5;entryY=1;entryDx=0;entryDy=0;" parent="1" source="SNUM9bTJhINtGgondqrU-52" target="SNUM9bTJhINtGgondqrU-4" edge="1">
          <mxGeometry relative="1" as="geometry">
            <mxPoint x="283.5" y="391.5" as="targetPoint" />
          </mxGeometry>
        </mxCell>
        <mxCell id="SNUM9bTJhINtGgondqrU-52" value="Nome" style="ellipse;whiteSpace=wrap;html=1;fontStyle=0" parent="1" vertex="1">
          <mxGeometry x="247.5" y="408.5" width="84" height="50" as="geometry" />
        </mxCell>
        <mxCell id="SNUM9bTJhINtGgondqrU-57" style="edgeStyle=none;shape=connector;curved=1;rounded=0;orthogonalLoop=1;jettySize=auto;html=1;exitX=1;exitY=0;exitDx=0;exitDy=0;strokeColor=default;align=center;verticalAlign=middle;fontFamily=Helvetica;fontSize=12;fontColor=default;labelBackgroundColor=default;startFill=0;startSize=8;endArrow=none;endSize=8;entryX=0.25;entryY=1;entryDx=0;entryDy=0;" parent="1" source="SNUM9bTJhINtGgondqrU-53" target="SNUM9bTJhINtGgondqrU-4" edge="1">
          <mxGeometry relative="1" as="geometry">
            <mxPoint x="306.5" y="404.5" as="targetPoint" />
          </mxGeometry>
        </mxCell>
        <mxCell id="SNUM9bTJhINtGgondqrU-53" value="CPF" style="ellipse;whiteSpace=wrap;html=1;fontStyle=4" parent="1" vertex="1">
          <mxGeometry x="138" y="398" width="71" height="47" as="geometry" />
        </mxCell>
        <mxCell id="SNUM9bTJhINtGgondqrU-58" style="edgeStyle=none;shape=connector;curved=1;rounded=0;orthogonalLoop=1;jettySize=auto;html=1;exitX=0;exitY=0;exitDx=0;exitDy=0;entryX=0.75;entryY=1;entryDx=0;entryDy=0;strokeColor=default;align=center;verticalAlign=middle;fontFamily=Helvetica;fontSize=12;fontColor=default;labelBackgroundColor=default;startFill=0;startSize=8;endArrow=none;endSize=8;" parent="1" source="SNUM9bTJhINtGgondqrU-54" target="SNUM9bTJhINtGgondqrU-4" edge="1">
          <mxGeometry relative="1" as="geometry" />
        </mxCell>
        <mxCell id="SNUM9bTJhINtGgondqrU-54" value="Telefone" style="ellipse;whiteSpace=wrap;html=1;fontStyle=0" parent="1" vertex="1">
          <mxGeometry x="353" y="395" width="71" height="47" as="geometry" />
        </mxCell>
        <mxCell id="SNUM9bTJhINtGgondqrU-64" style="edgeStyle=none;shape=connector;curved=1;rounded=0;orthogonalLoop=1;jettySize=auto;html=1;exitX=1;exitY=1;exitDx=0;exitDy=0;entryX=0.25;entryY=0;entryDx=0;entryDy=0;strokeColor=default;align=center;verticalAlign=middle;fontFamily=Helvetica;fontSize=12;fontColor=default;labelBackgroundColor=default;startFill=0;startSize=8;endArrow=none;endSize=8;" parent="1" source="SNUM9bTJhINtGgondqrU-59" target="SNUM9bTJhINtGgondqrU-9" edge="1">
          <mxGeometry relative="1" as="geometry" />
        </mxCell>
        <mxCell id="SNUM9bTJhINtGgondqrU-59" value="ID" style="ellipse;whiteSpace=wrap;html=1;fontStyle=4" parent="1" vertex="1">
          <mxGeometry x="-291" y="308" width="47" height="42" as="geometry" />
        </mxCell>
        <mxCell id="SNUM9bTJhINtGgondqrU-65" style="edgeStyle=none;shape=connector;curved=1;rounded=0;orthogonalLoop=1;jettySize=auto;html=1;exitX=1;exitY=0.5;exitDx=0;exitDy=0;entryX=0;entryY=0;entryDx=0;entryDy=0;strokeColor=default;align=center;verticalAlign=middle;fontFamily=Helvetica;fontSize=12;fontColor=default;labelBackgroundColor=default;startFill=0;startSize=8;endArrow=none;endSize=8;" parent="1" source="SNUM9bTJhINtGgondqrU-60" target="SNUM9bTJhINtGgondqrU-9" edge="1">
          <mxGeometry relative="1" as="geometry" />
        </mxCell>
        <mxCell id="SNUM9bTJhINtGgondqrU-60" value="Nome" style="ellipse;whiteSpace=wrap;html=1;fontStyle=0" parent="1" vertex="1">
          <mxGeometry x="-360.5" y="324" width="64" height="47" as="geometry" />
        </mxCell>
        <mxCell id="SNUM9bTJhINtGgondqrU-67" style="edgeStyle=none;shape=connector;curved=1;rounded=0;orthogonalLoop=1;jettySize=auto;html=1;exitX=0;exitY=1;exitDx=0;exitDy=0;strokeColor=default;align=center;verticalAlign=middle;fontFamily=Helvetica;fontSize=12;fontColor=default;labelBackgroundColor=default;startFill=0;startSize=8;endArrow=none;endSize=8;entryX=0.75;entryY=0;entryDx=0;entryDy=0;" parent="1" source="SNUM9bTJhINtGgondqrU-62" target="SNUM9bTJhINtGgondqrU-9" edge="1">
          <mxGeometry relative="1" as="geometry">
            <mxPoint x="-97" y="377" as="targetPoint" />
          </mxGeometry>
        </mxCell>
        <mxCell id="SNUM9bTJhINtGgondqrU-62" value="Descrição" style="ellipse;whiteSpace=wrap;html=1;fontStyle=0" parent="1" vertex="1">
          <mxGeometry x="-136.5" y="317.5" width="84" height="50" as="geometry" />
        </mxCell>
        <mxCell id="SNUM9bTJhINtGgondqrU-73" style="edgeStyle=none;shape=connector;curved=1;rounded=0;orthogonalLoop=1;jettySize=auto;html=1;exitX=0.5;exitY=1;exitDx=0;exitDy=0;entryX=0.5;entryY=0;entryDx=0;entryDy=0;strokeColor=default;align=center;verticalAlign=middle;fontFamily=Helvetica;fontSize=12;fontColor=default;labelBackgroundColor=default;startFill=0;startSize=8;endArrow=none;endSize=8;" parent="1" source="SNUM9bTJhINtGgondqrU-72" target="SNUM9bTJhINtGgondqrU-4" edge="1">
          <mxGeometry relative="1" as="geometry" />
        </mxCell>
        <mxCell id="SNUM9bTJhINtGgondqrU-74" style="edgeStyle=none;shape=connector;curved=1;rounded=0;orthogonalLoop=1;jettySize=auto;html=1;exitX=0.5;exitY=0;exitDx=0;exitDy=0;entryX=0.5;entryY=1;entryDx=0;entryDy=0;strokeColor=default;align=center;verticalAlign=middle;fontFamily=Helvetica;fontSize=12;fontColor=default;labelBackgroundColor=default;startFill=0;startSize=8;endArrow=none;endSize=8;" parent="1" source="SNUM9bTJhINtGgondqrU-72" target="SNUM9bTJhINtGgondqrU-1" edge="1">
          <mxGeometry relative="1" as="geometry" />
        </mxCell>
        <mxCell id="SNUM9bTJhINtGgondqrU-72" value="trabalha" style="rhombus;whiteSpace=wrap;html=1;fontFamily=Helvetica;fontSize=12;fontColor=default;labelBackgroundColor=default;" parent="1" vertex="1">
          <mxGeometry x="237.5" y="204" width="80" height="66" as="geometry" />
        </mxCell>
        <mxCell id="SNUM9bTJhINtGgondqrU-76" value="N" style="text;html=1;align=center;verticalAlign=middle;resizable=0;points=[];autosize=1;strokeColor=none;fillColor=none;fontSize=12;fontFamily=Helvetica;fontColor=default;labelBackgroundColor=default;" parent="1" vertex="1">
          <mxGeometry x="276" y="265.27" width="27" height="26" as="geometry" />
        </mxCell>
        <mxCell id="SNUM9bTJhINtGgondqrU-77" value="1" style="text;html=1;align=center;verticalAlign=middle;resizable=0;points=[];autosize=1;strokeColor=none;fillColor=none;fontSize=12;fontFamily=Helvetica;fontColor=default;labelBackgroundColor=default;" parent="1" vertex="1">
          <mxGeometry x="275" y="181" width="25" height="26" as="geometry" />
        </mxCell>
        <mxCell id="SNUM9bTJhINtGgondqrU-80" style="edgeStyle=none;shape=connector;curved=1;rounded=0;orthogonalLoop=1;jettySize=auto;html=1;exitX=1;exitY=0.5;exitDx=0;exitDy=0;entryX=0;entryY=0.5;entryDx=0;entryDy=0;strokeColor=default;align=center;verticalAlign=middle;fontFamily=Helvetica;fontSize=12;fontColor=default;labelBackgroundColor=default;startFill=0;startSize=8;endArrow=none;endSize=8;" parent="1" source="SNUM9bTJhINtGgondqrU-78" target="SNUM9bTJhINtGgondqrU-5" edge="1">
          <mxGeometry relative="1" as="geometry" />
        </mxCell>
        <mxCell id="SNUM9bTJhINtGgondqrU-78" value="realiza" style="rhombus;whiteSpace=wrap;html=1;fontFamily=Helvetica;fontSize=12;fontColor=default;labelBackgroundColor=default;" parent="1" vertex="1">
          <mxGeometry x="-448" y="77.5" width="80" height="66" as="geometry" />
        </mxCell>
        <mxCell id="SNUM9bTJhINtGgondqrU-81" value="1" style="text;html=1;align=center;verticalAlign=middle;resizable=0;points=[];autosize=1;strokeColor=none;fillColor=none;fontSize=12;fontFamily=Helvetica;fontColor=default;labelBackgroundColor=default;" parent="1" vertex="1">
          <mxGeometry x="-468" y="84.5" width="25" height="26" as="geometry" />
        </mxCell>
        <mxCell id="SNUM9bTJhINtGgondqrU-82" value="N" style="text;html=1;align=center;verticalAlign=middle;resizable=0;points=[];autosize=1;strokeColor=none;fillColor=none;fontSize=12;fontFamily=Helvetica;fontColor=default;labelBackgroundColor=default;" parent="1" vertex="1">
          <mxGeometry x="-378" y="84.5" width="27" height="26" as="geometry" />
        </mxCell>
        <mxCell id="SNUM9bTJhINtGgondqrU-85" style="edgeStyle=none;shape=connector;curved=1;rounded=0;orthogonalLoop=1;jettySize=auto;html=1;entryX=0;entryY=0.5;entryDx=0;entryDy=0;strokeColor=default;align=center;verticalAlign=middle;fontFamily=Helvetica;fontSize=12;fontColor=default;labelBackgroundColor=default;startFill=0;startSize=8;endArrow=none;endSize=8;" parent="1" source="SNUM9bTJhINtGgondqrU-84" target="SNUM9bTJhINtGgondqrU-1" edge="1">
          <mxGeometry relative="1" as="geometry" />
        </mxCell>
        <mxCell id="SNUM9bTJhINtGgondqrU-86" style="edgeStyle=none;shape=connector;curved=1;rounded=0;orthogonalLoop=1;jettySize=auto;html=1;exitX=0;exitY=0.5;exitDx=0;exitDy=0;strokeColor=default;align=center;verticalAlign=middle;fontFamily=Helvetica;fontSize=12;fontColor=default;labelBackgroundColor=default;startFill=0;startSize=8;endArrow=none;endSize=8;" parent="1" source="SNUM9bTJhINtGgondqrU-84" target="SNUM9bTJhINtGgondqrU-5" edge="1">
          <mxGeometry relative="1" as="geometry" />
        </mxCell>
        <mxCell id="SNUM9bTJhINtGgondqrU-84" value="recebe" style="rhombus;whiteSpace=wrap;html=1;fontFamily=Helvetica;fontSize=12;fontColor=default;labelBackgroundColor=default;" parent="1" vertex="1">
          <mxGeometry x="-4" y="77.5" width="80" height="66" as="geometry" />
        </mxCell>
        <mxCell id="SNUM9bTJhINtGgondqrU-87" value="1" style="text;html=1;align=center;verticalAlign=middle;resizable=0;points=[];autosize=1;strokeColor=none;fillColor=none;fontSize=12;fontFamily=Helvetica;fontColor=default;labelBackgroundColor=default;" parent="1" vertex="1">
          <mxGeometry x="70" y="87.5" width="25" height="26" as="geometry" />
        </mxCell>
        <mxCell id="SNUM9bTJhINtGgondqrU-88" value="N" style="text;html=1;align=center;verticalAlign=middle;resizable=0;points=[];autosize=1;strokeColor=none;fillColor=none;fontSize=12;fontFamily=Helvetica;fontColor=default;labelBackgroundColor=default;" parent="1" vertex="1">
          <mxGeometry x="-25" y="88.5" width="27" height="26" as="geometry" />
        </mxCell>
        <mxCell id="SNUM9bTJhINtGgondqrU-90" value="" style="edgeStyle=none;shape=connector;curved=1;rounded=0;orthogonalLoop=1;jettySize=auto;html=1;strokeColor=default;align=center;verticalAlign=middle;fontFamily=Helvetica;fontSize=12;fontColor=default;labelBackgroundColor=default;startFill=0;startSize=8;endArrow=none;endSize=8;" parent="1" source="SNUM9bTJhINtGgondqrU-89" target="SNUM9bTJhINtGgondqrU-8" edge="1">
          <mxGeometry relative="1" as="geometry" />
        </mxCell>
        <mxCell id="SNUM9bTJhINtGgondqrU-91" value="" style="edgeStyle=none;shape=connector;curved=1;rounded=0;orthogonalLoop=1;jettySize=auto;html=1;strokeColor=default;align=center;verticalAlign=middle;fontFamily=Helvetica;fontSize=12;fontColor=default;labelBackgroundColor=default;startFill=0;startSize=8;endArrow=none;endSize=8;" parent="1" source="SNUM9bTJhINtGgondqrU-89" target="SNUM9bTJhINtGgondqrU-3" edge="1">
          <mxGeometry relative="1" as="geometry" />
        </mxCell>
        <mxCell id="SNUM9bTJhINtGgondqrU-89" value="recebe" style="rhombus;whiteSpace=wrap;html=1;fontFamily=Helvetica;fontSize=12;fontColor=default;labelBackgroundColor=default;" parent="1" vertex="1">
          <mxGeometry x="-2" y="682" width="80" height="66" as="geometry" />
        </mxCell>
        <mxCell id="SNUM9bTJhINtGgondqrU-92" value="1" style="text;html=1;align=center;verticalAlign=middle;resizable=0;points=[];autosize=1;strokeColor=none;fillColor=none;fontSize=12;fontFamily=Helvetica;fontColor=default;labelBackgroundColor=default;" parent="1" vertex="1">
          <mxGeometry x="69" y="693.5" width="25" height="26" as="geometry" />
        </mxCell>
        <mxCell id="SNUM9bTJhINtGgondqrU-93" value="N" style="text;html=1;align=center;verticalAlign=middle;resizable=0;points=[];autosize=1;strokeColor=none;fillColor=none;fontSize=12;fontFamily=Helvetica;fontColor=default;labelBackgroundColor=default;" parent="1" vertex="1">
          <mxGeometry x="-200" y="501" width="27" height="26" as="geometry" />
        </mxCell>
        <mxCell id="SNUM9bTJhINtGgondqrU-96" style="edgeStyle=none;shape=connector;curved=1;rounded=0;orthogonalLoop=1;jettySize=auto;html=1;exitX=0.5;exitY=1;exitDx=0;exitDy=0;strokeColor=default;align=center;verticalAlign=middle;fontFamily=Helvetica;fontSize=12;fontColor=default;labelBackgroundColor=default;startFill=0;startSize=8;endArrow=none;endSize=8;entryX=0.5;entryY=0;entryDx=0;entryDy=0;" parent="1" source="SNUM9bTJhINtGgondqrU-94" target="SNUM9bTJhINtGgondqrU-9" edge="1">
          <mxGeometry relative="1" as="geometry">
            <mxPoint x="-170" y="365" as="targetPoint" />
          </mxGeometry>
        </mxCell>
        <mxCell id="SNUM9bTJhINtGgondqrU-94" value="contém" style="rhombus;whiteSpace=wrap;html=1;fontFamily=Helvetica;fontSize=12;fontColor=default;labelBackgroundColor=default;" parent="1" vertex="1">
          <mxGeometry x="-234.5" y="212" width="80" height="66" as="geometry" />
        </mxCell>
        <mxCell id="SNUM9bTJhINtGgondqrU-97" value="N" style="text;html=1;align=center;verticalAlign=middle;resizable=0;points=[];autosize=1;strokeColor=none;fillColor=none;fontSize=12;fontFamily=Helvetica;fontColor=default;labelBackgroundColor=default;" parent="1" vertex="1">
          <mxGeometry x="-196" y="189" width="27" height="26" as="geometry" />
        </mxCell>
        <mxCell id="SNUM9bTJhINtGgondqrU-98" value="N" style="text;html=1;align=center;verticalAlign=middle;resizable=0;points=[];autosize=1;strokeColor=none;fillColor=none;fontSize=12;fontFamily=Helvetica;fontColor=default;labelBackgroundColor=default;" parent="1" vertex="1">
          <mxGeometry x="-196" y="273.27" width="27" height="26" as="geometry" />
        </mxCell>
        <mxCell id="SNUM9bTJhINtGgondqrU-100" style="edgeStyle=none;shape=connector;curved=1;rounded=0;orthogonalLoop=1;jettySize=auto;html=1;exitX=1;exitY=0;exitDx=0;exitDy=0;strokeColor=default;align=center;verticalAlign=middle;fontFamily=Helvetica;fontSize=12;fontColor=default;labelBackgroundColor=default;startFill=0;startSize=8;endArrow=none;endSize=8;" parent="1" source="SNUM9bTJhINtGgondqrU-99" target="SNUM9bTJhINtGgondqrU-94" edge="1">
          <mxGeometry relative="1" as="geometry">
            <mxPoint x="-120.001515190165" y="277.3223304703363" as="sourcePoint" />
          </mxGeometry>
        </mxCell>
        <mxCell id="SNUM9bTJhINtGgondqrU-99" value="Quantidade" style="ellipse;whiteSpace=wrap;html=1;fontStyle=0" parent="1" vertex="1">
          <mxGeometry x="-144" y="189" width="84" height="50" as="geometry" />
        </mxCell>
        <mxCell id="SNUM9bTJhINtGgondqrU-103" value="entrega" style="rhombus;whiteSpace=wrap;html=1;fontFamily=Helvetica;fontSize=12;fontColor=default;labelBackgroundColor=default;" parent="1" vertex="1">
          <mxGeometry x="-234.5" y="519" width="80" height="66" as="geometry" />
        </mxCell>
        <mxCell id="SNUM9bTJhINtGgondqrU-106" value="N" style="text;html=1;align=center;verticalAlign=middle;resizable=0;points=[];autosize=1;strokeColor=none;fillColor=none;fontSize=12;fontFamily=Helvetica;fontColor=default;labelBackgroundColor=default;" parent="1" vertex="1">
          <mxGeometry x="-200" y="579" width="27" height="26" as="geometry" />
        </mxCell>
        <mxCell id="SNUM9bTJhINtGgondqrU-107" value="N" style="text;html=1;align=center;verticalAlign=middle;resizable=0;points=[];autosize=1;strokeColor=none;fillColor=none;fontSize=12;fontFamily=Helvetica;fontColor=default;labelBackgroundColor=default;" parent="1" vertex="1">
          <mxGeometry x="-32" y="694" width="27" height="26" as="geometry" />
        </mxCell>
        <mxCell id="SNUM9bTJhINtGgondqrU-109" style="edgeStyle=none;shape=connector;curved=1;rounded=0;orthogonalLoop=1;jettySize=auto;html=1;exitX=0;exitY=0.5;exitDx=0;exitDy=0;entryX=1;entryY=1;entryDx=0;entryDy=0;strokeColor=default;align=center;verticalAlign=middle;fontFamily=Helvetica;fontSize=12;fontColor=default;labelBackgroundColor=default;startFill=0;startSize=8;endArrow=none;endSize=8;" parent="1" source="SNUM9bTJhINtGgondqrU-108" target="SNUM9bTJhINtGgondqrU-103" edge="1">
          <mxGeometry relative="1" as="geometry">
            <mxPoint x="-335.0647335440094" y="332.5430579421882" as="sourcePoint" />
          </mxGeometry>
        </mxCell>
        <mxCell id="SNUM9bTJhINtGgondqrU-108" value="Quantidade" style="ellipse;whiteSpace=wrap;html=1;fontStyle=0" parent="1" vertex="1">
          <mxGeometry x="-130" y="557" width="84" height="50" as="geometry" />
        </mxCell>
        <mxCell id="SNUM9bTJhINtGgondqrU-114" style="edgeStyle=none;shape=connector;curved=1;rounded=0;orthogonalLoop=1;jettySize=auto;html=1;exitX=0;exitY=1;exitDx=0;exitDy=0;strokeColor=default;align=center;verticalAlign=middle;fontFamily=Helvetica;fontSize=12;fontColor=default;labelBackgroundColor=default;startFill=0;startSize=8;endArrow=none;endSize=8;" parent="1" source="SNUM9bTJhINtGgondqrU-59" target="SNUM9bTJhINtGgondqrU-59" edge="1">
          <mxGeometry relative="1" as="geometry" />
        </mxCell>
        <mxCell id="Pg18f3G1zHeH6GrJK4UB-2" style="edgeStyle=none;curved=1;rounded=0;orthogonalLoop=1;jettySize=auto;html=1;exitX=0;exitY=0.5;exitDx=0;exitDy=0;fontSize=12;startSize=8;endSize=8;endArrow=none;startFill=0;" parent="1" source="Pg18f3G1zHeH6GrJK4UB-1" target="SNUM9bTJhINtGgondqrU-94" edge="1">
          <mxGeometry relative="1" as="geometry" />
        </mxCell>
        <mxCell id="Pg18f3G1zHeH6GrJK4UB-1" value="Data de validade" style="ellipse;whiteSpace=wrap;html=1;fontStyle=0" parent="1" vertex="1">
          <mxGeometry x="-144" y="244" width="99" height="42" as="geometry" />
        </mxCell>
        <mxCell id="Pg18f3G1zHeH6GrJK4UB-3" value="Categoria do Item" style="rounded=0;whiteSpace=wrap;html=1;" parent="1" vertex="1">
          <mxGeometry x="-650" y="384.5" width="131" height="43" as="geometry" />
        </mxCell>
        <mxCell id="Pg18f3G1zHeH6GrJK4UB-7" style="edgeStyle=none;shape=connector;curved=1;rounded=0;orthogonalLoop=1;jettySize=auto;html=1;exitX=1;exitY=0.5;exitDx=0;exitDy=0;entryX=0;entryY=0;entryDx=0;entryDy=0;strokeColor=default;align=center;verticalAlign=middle;fontFamily=Helvetica;fontSize=12;fontColor=default;labelBackgroundColor=default;startFill=0;startSize=8;endArrow=none;endSize=8;" parent="1" source="Pg18f3G1zHeH6GrJK4UB-4" target="Pg18f3G1zHeH6GrJK4UB-3" edge="1">
          <mxGeometry relative="1" as="geometry" />
        </mxCell>
        <mxCell id="Pg18f3G1zHeH6GrJK4UB-4" value="ID" style="ellipse;whiteSpace=wrap;html=1;fontStyle=4" parent="1" vertex="1">
          <mxGeometry x="-740" y="350" width="59" height="41" as="geometry" />
        </mxCell>
        <mxCell id="Pg18f3G1zHeH6GrJK4UB-6" value="" style="edgeStyle=none;curved=1;rounded=0;orthogonalLoop=1;jettySize=auto;html=1;fontSize=12;startSize=8;endSize=8;endArrow=none;startFill=0;" parent="1" source="Pg18f3G1zHeH6GrJK4UB-5" target="Pg18f3G1zHeH6GrJK4UB-3" edge="1">
          <mxGeometry relative="1" as="geometry" />
        </mxCell>
        <mxCell id="Pg18f3G1zHeH6GrJK4UB-5" value="Nome" style="ellipse;whiteSpace=wrap;html=1;fontStyle=0" parent="1" vertex="1">
          <mxGeometry x="-759" y="425" width="84" height="50" as="geometry" />
        </mxCell>
        <mxCell id="Pg18f3G1zHeH6GrJK4UB-9" value="" style="edgeStyle=none;shape=connector;curved=1;rounded=0;orthogonalLoop=1;jettySize=auto;html=1;strokeColor=default;align=center;verticalAlign=middle;fontFamily=Helvetica;fontSize=12;fontColor=default;labelBackgroundColor=default;startFill=0;startSize=8;endArrow=none;endSize=8;" parent="1" source="Pg18f3G1zHeH6GrJK4UB-8" target="Pg18f3G1zHeH6GrJK4UB-3" edge="1">
          <mxGeometry relative="1" as="geometry" />
        </mxCell>
        <mxCell id="Pg18f3G1zHeH6GrJK4UB-10" value="" style="edgeStyle=none;shape=connector;curved=1;rounded=0;orthogonalLoop=1;jettySize=auto;html=1;strokeColor=default;align=center;verticalAlign=middle;fontFamily=Helvetica;fontSize=12;fontColor=default;labelBackgroundColor=default;startFill=0;startSize=8;endArrow=none;endSize=8;" parent="1" source="Pg18f3G1zHeH6GrJK4UB-8" target="SNUM9bTJhINtGgondqrU-9" edge="1">
          <mxGeometry relative="1" as="geometry" />
        </mxCell>
        <mxCell id="Pg18f3G1zHeH6GrJK4UB-8" value="possui" style="rhombus;whiteSpace=wrap;html=1;fontFamily=Helvetica;fontSize=12;fontColor=default;labelBackgroundColor=default;" parent="1" vertex="1">
          <mxGeometry x="-445.5" y="373" width="80" height="66" as="geometry" />
        </mxCell>
        <mxCell id="Pg18f3G1zHeH6GrJK4UB-11" value="1" style="text;html=1;align=center;verticalAlign=middle;resizable=0;points=[];autosize=1;strokeColor=none;fillColor=none;fontSize=12;fontFamily=Helvetica;fontColor=default;labelBackgroundColor=default;" parent="1" vertex="1">
          <mxGeometry x="-468" y="382.5" width="25" height="26" as="geometry" />
        </mxCell>
        <mxCell id="Pg18f3G1zHeH6GrJK4UB-12" value="N" style="text;html=1;align=center;verticalAlign=middle;resizable=0;points=[];autosize=1;strokeColor=none;fillColor=none;fontSize=12;fontFamily=Helvetica;fontColor=default;labelBackgroundColor=default;" parent="1" vertex="1">
          <mxGeometry x="-373" y="384.5" width="27" height="26" as="geometry" />
        </mxCell>
        <mxCell id="hB6pW6JOHHP-10k3JOg--2" style="edgeStyle=none;curved=1;rounded=0;orthogonalLoop=1;jettySize=auto;html=1;exitX=0.5;exitY=0;exitDx=0;exitDy=0;entryX=0.75;entryY=1;entryDx=0;entryDy=0;fontSize=12;startSize=8;endSize=8;endArrow=none;startFill=0;" parent="1" source="hB6pW6JOHHP-10k3JOg--1" target="SNUM9bTJhINtGgondqrU-3" edge="1">
          <mxGeometry relative="1" as="geometry" />
        </mxCell>
        <mxCell id="hB6pW6JOHHP-10k3JOg--1" value="Composição familiar" style="ellipse;whiteSpace=wrap;html=1;fontStyle=0" parent="1" vertex="1">
          <mxGeometry x="300" y="770" width="71" height="47" as="geometry" />
        </mxCell>
      </root>
    </mxGraphModel>
  </diagram>
</mxfile>
